<?xml version="1.0" standalone="no"?>
<!DOCTYPE svg PUBLIC "-//W3C//DTD SVG 20010904//EN"
 "http://www.w3.org/TR/2001/REC-SVG-20010904/DTD/svg10.dtd">
<svg version="1.0" xmlns="http://www.w3.org/2000/svg"
 width="1746.000000pt" height="1785.000000pt" viewBox="0 0 1746.000000 1785.000000"
 preserveAspectRatio="xMidYMid meet">

<g transform="translate(0.000000,1785.000000) scale(0.100000,-0.100000)"
fill="#000000" stroke="none">
<path d="M0 8925 l0 -8925 8730 0 8730 0 0 8925 0 8925 -8730 0 -8730 0 0
-8925z m11490 8400 c69 -36 124 -138 241 -445 40 -107 104 -256 142 -330 70
-137 257 -579 307 -725 15 -44 54 -147 87 -230 100 -248 151 -425 189 -660 26
-154 26 -487 0 -639 -93 -560 -386 -1059 -981 -1665 -282 -288 -1117 -1054
-1203 -1103 -143 -83 -259 -20 -327 177 -40 117 -56 237 -62 450 -12 466 32
715 177 1005 107 214 209 353 565 774 516 609 635 831 720 1332 58 343 75 658
79 1455 2 328 6 601 10 607 9 16 21 15 56 -3z m-6002 -121 c95 -19 382 -115
478 -159 39 -18 98 -50 130 -72 33 -22 111 -68 174 -103 181 -100 212 -122
358 -262 76 -73 167 -160 202 -194 222 -209 471 -547 674 -913 200 -362 349
-812 430 -1301 54 -325 61 -425 61 -860 0 -442 -2 -470 -71 -905 -97 -617
-148 -887 -204 -1083 -89 -312 -180 -348 -370 -146 -239 254 -384 703 -445
1374 -8 91 -24 314 -35 495 -45 742 -76 945 -202 1335 -204 634 -756 1654
-1203 2225 -143 182 -253 347 -261 393 -15 76 35 151 117 177 58 18 76 18 167
-1z m11143 -4971 c45 -120 33 -313 -31 -513 -55 -167 -252 -592 -375 -805
-117 -204 -323 -443 -755 -876 -569 -571 -952 -876 -1160 -927 -287 -70 -1027
-16 -1767 129 -297 57 -511 118 -628 177 -86 43 -176 100 -192 121 -35 47 -45
192 -18 256 51 121 183 292 452 582 82 89 169 194 194 236 44 70 50 76 105 97
154 57 334 72 934 75 502 2 561 6 804 46 510 85 991 299 1554 690 272 189 324
233 509 427 190 200 333 342 344 342 4 0 17 -26 30 -57z m-14116 -67 c332 -44
663 -126 920 -228 144 -57 358 -169 497 -260 242 -159 444 -324 783 -643 110
-103 346 -323 525 -489 406 -376 661 -625 848 -831 81 -88 183 -198 228 -246
99 -104 125 -158 103 -216 -18 -47 -76 -91 -171 -131 -199 -83 -371 -110 -584
-93 -503 42 -916 216 -1319 556 -77 65 -192 160 -255 210 -110 89 -275 252
-570 565 -74 79 -184 185 -245 236 -60 50 -130 113 -155 139 -95 99 -272 216
-506 333 -165 83 -232 105 -385 127 -140 20 -469 94 -604 136 -55 17 -227 78
-382 136 -219 82 -291 113 -322 140 -74 63 -54 106 112 232 118 89 393 246
477 271 82 25 249 57 360 69 115 13 509 5 645 -13z m7020 -2971 c155 -32 316
-143 409 -283 81 -123 117 -247 117 -406 -1 -282 -151 -525 -403 -652 -121
-61 -203 -78 -373 -79 -265 0 -394 43 -526 174 -62 62 -85 94 -122 171 -74
153 -91 235 -91 430 0 244 31 338 151 450 125 118 317 193 543 214 69 6 217
-4 295 -19z m3640 -1889 c265 -71 526 -253 1174 -821 467 -409 595 -512 827
-665 298 -197 606 -342 883 -415 192 -51 221 -60 221 -75 0 -34 -195 -182
-390 -297 -234 -137 -750 -274 -1180 -313 -149 -13 -474 -13 -598 1 -220 23
-460 88 -606 161 -309 156 -893 703 -1477 1383 -376 439 -493 605 -517 737
l-9 47 81 25 c327 101 794 196 1236 250 73 9 296 -3 355 -18z m-8290 -60 c347
-32 574 -61 1190 -156 132 -21 190 -41 209 -73 9 -14 6 -27 -13 -60 -13 -23
-80 -148 -148 -277 -296 -557 -437 -743 -598 -785 -85 -22 -225 -19 -447 10
-366 47 -567 59 -968 59 -306 1 -398 -3 -500 -17 -446 -63 -780 -179 -1140
-397 -122 -74 -163 -103 -433 -307 -274 -207 -610 -326 -728 -257 -61 36 -74
65 -74 162 1 75 6 104 42 207 160 470 538 1088 842 1378 311 296 849 470 1646
531 135 10 950 -3 1120 -18z m4973 -1548 c53 -13 541 -335 669 -440 223 -185
383 -460 472 -814 57 -225 84 -431 126 -959 44 -546 75 -774 139 -1020 70
-264 146 -425 352 -740 399 -612 504 -809 504 -949 0 -49 -4 -59 -35 -92 l-35
-37 -72 5 c-56 4 -148 30 -388 107 -422 136 -482 159 -790 301 -740 339 -1061
524 -1337 769 -222 198 -358 398 -441 651 -85 257 -116 467 -115 780 2 513
118 1025 406 1796 178 474 223 571 284 611 59 39 175 53 261 31z m-3333 -1504
c68 -73 195 -575 195 -771 0 -190 -43 -441 -93 -543 -30 -60 -37 -67 -102
-102 -38 -21 -151 -72 -250 -114 -187 -80 -300 -148 -460 -275 -276 -219 -526
-506 -620 -712 -18 -40 -76 -189 -129 -332 -116 -311 -133 -349 -163 -353 -50
-7 -137 62 -210 168 -140 205 -294 676 -344 1050 -18 134 -15 423 4 540 89
530 400 872 1025 1129 150 61 343 126 618 205 120 35 264 80 319 100 123 44
176 47 210 10z"/>
</g>
</svg>
